<svg xmlns="http://www.w3.org/2000/svg" viewBox="0 0 64 64" role="img" aria-labelledby="brandMarkClassicTitle">
<title id="brandMarkClassicTitle">TMDB Client classic brand mark</title>
<rect x="8" y="8" width="48" height="48" rx="13" fill="#101216"/>
<path fill="#D63A2C" d="M18 26h28c3.31 0 6 2.69 6 6v1H12v-.69A6.31 6.31 0 0 1 18 26Z"/>
<path fill="#EE4E3D" d="M18 31h28c3.31 0 6 2.69 6 6v6.5A7.5 7.5 0 0 1 44.5 51h-25A7.5 7.5 0 0 1 12 43.5V31h6Z"/>
<path fill="#FFF7F5" d="M18.35 16h8.45l-3.55 8h-8.46l3.56-8Zm10.95 0h8.45l-3.55 8h-8.46l3.56-8Zm10.95 0h8.45l-3.55 8h-8.46l3.56-8Z"/>
<rect x="25" y="38" width="14" height="3.75" rx="1.88" fill="#FFF7F5"/>
<rect x="21" y="43.5" width="22" height="3.25" rx="1.63" fill="#FFB7AD"/>
</svg>
