<svg xmlns="http://www.w3.org/2000/svg" viewBox="0 0 64 64" role="img" aria-labelledby="brandFaviconTitle">
<title id="brandFaviconTitle">Cinegraph favicon</title>
<rect width="64" height="64" fill="#141310"/>
<path fill="#9f8762" fill-rule="evenodd" clip-rule="evenodd" d="M30.75 9.25a21.75 21.75 0 1 1 0 43.5 21.75 21.75 0 1 1 0-43.5ZM30.75 15.4a4.85 4.85 0 1 1 0 9.7 4.85 4.85 0 1 1 0-9.7ZM19.1 24.7a4.85 4.85 0 1 1 0 9.7 4.85 4.85 0 1 1 0-9.7ZM42.4 24.7a4.85 4.85 0 1 1 0 9.7 4.85 4.85 0 1 1 0-9.7ZM30.75 27.95a3.2 3.2 0 1 1 0 6.4 3.2 3.2 0 1 1 0-6.4ZM24.85 37.55a4.85 4.85 0 1 1 0 9.7 4.85 4.85 0 1 1 0-9.7ZM36.65 37.55a4.85 4.85 0 1 1 0 9.7 4.85 4.85 0 1 1 0-9.7Z"/>
<rect x="48.25" y="43.6" width="9" height="4.75" rx="2.38" fill="#9f8762"/>
</svg>
