<svg xmlns="http://www.w3.org/2000/svg" width="500" height="281" viewBox="0 0 500 281"><rect width="100%" height="100%" fill="#DDDDDD"/><path fill="#999999" d="M134.98 110.225h8.05v49.16h-4.69q-1.09 0-1.82-.36-.73-.35-1.41-1.2l-25.67-32.78q.21 2.24.21 4.15v30.19h-8.06v-49.16h4.79q.58 0 1 .05.43.05.75.2.33.15.63.44.31.29.68.77l25.77 32.91q-.1-1.19-.17-2.35-.06-1.15-.06-2.14zm33.11 13.73q3.88 0 7.06 1.26t5.44 3.57 3.48 5.64q1.23 3.34 1.23 7.45 0 4.15-1.23 7.48-1.22 3.33-3.48 5.68-2.26 2.34-5.44 3.6t-7.06 1.26q-3.91 0-7.1-1.26-3.2-1.26-5.46-3.6-2.26-2.35-3.5-5.68t-1.24-7.48q0-4.11 1.24-7.45 1.24-3.33 3.5-5.64t5.46-3.57q3.19-1.26 7.1-1.26m0 29.48q4.35 0 6.45-2.92 2.09-2.93 2.09-8.57 0-5.65-2.09-8.6-2.1-2.96-6.45-2.96-4.42 0-6.54 2.97-2.13 2.98-2.13 8.59t2.13 8.55q2.12 2.94 6.54 2.94m48.55-18.73v15.64q1.43 1.73 3.12 2.44 1.68.72 3.65.72 1.9 0 3.43-.72 1.53-.71 2.61-2.17 1.07-1.46 1.64-3.69.58-2.23.58-5.25 0-3.06-.49-5.19-.49-2.12-1.41-3.45t-2.23-1.94-2.97-.61q-2.62 0-4.46 1.1-1.83 1.11-3.47 3.12m-1.12-8.67.68 3.23q2.14-2.42 4.86-3.91 2.72-1.5 6.4-1.5 2.85 0 5.22 1.19 2.36 1.19 4.08 3.45 1.71 2.26 2.65 5.58.93 3.31.93 7.6 0 3.91-1.05 7.24-1.06 3.33-3.01 5.78-1.96 2.45-4.73 3.82-2.77 1.38-6.2 1.38-2.93 0-5-.9t-3.71-2.5v14.28h-8.39v-46.27h5.13q1.63 0 2.14 1.53m46.79-2.08q3.87 0 7.05 1.26t5.44 3.57 3.49 5.64q1.22 3.34 1.22 7.45 0 4.15-1.22 7.48-1.23 3.33-3.49 5.68-2.26 2.34-5.44 3.6t-7.05 1.26q-3.91 0-7.11-1.26t-5.46-3.6q-2.26-2.35-3.5-5.68t-1.24-7.48q0-4.11 1.24-7.45 1.24-3.33 3.5-5.64t5.46-3.57 7.11-1.26m0 29.48q4.35 0 6.44-2.92 2.09-2.93 2.09-8.57 0-5.65-2.09-8.6-2.09-2.96-6.44-2.96-4.42 0-6.55 2.97-2.12 2.98-2.12 8.59t2.12 8.55q2.13 2.94 6.55 2.94m46.81-25.16-1.9 3.03q-.34.54-.71.76-.38.22-.96.22-.61 0-1.3-.34-.7-.34-1.62-.76-.92-.43-2.09-.77t-2.77-.34q-2.48 0-3.89 1.06-1.42 1.05-1.42 2.75 0 1.12.74 1.89.73.76 1.93 1.34 1.21.58 2.74 1.04t3.11 1 3.11 1.24 2.74 1.77 1.94 2.57q.73 1.49.73 3.6 0 2.52-.9 4.64-.9 2.13-2.67 3.67-1.77 1.55-4.37 2.42-2.6.86-6 .86-1.8 0-3.52-.32t-3.3-.9-2.92-1.36q-1.35-.78-2.37-1.7l1.94-3.2q.38-.57.89-.88t1.29-.31 1.48.45q.69.44 1.61.95t2.16.95 3.15.44q1.49 0 2.56-.36 1.07-.35 1.77-.93t1.02-1.34q.32-.77.32-1.58 0-1.23-.73-2.01t-1.93-1.36q-1.21-.58-2.76-1.04t-3.16-1q-1.62-.54-3.16-1.27-1.55-.74-2.76-1.86-1.2-1.12-1.93-2.75-.74-1.63-.74-3.95 0-2.14.85-4.08.85-1.93 2.5-3.38 1.65-1.44 4.12-2.31 2.46-.87 5.69-.87 3.61 0 6.56 1.19 2.96 1.19 4.93 3.13m18.33 31.65q-4.56 0-6.99-2.56-2.43-2.57-2.43-7.09v-19.48h-3.57q-.68 0-1.15-.45-.48-.44-.48-1.32v-3.33l5.61-.92 1.77-9.52q.17-.68.64-1.06.48-.37 1.23-.37h4.35v10.98h9.32v5.99h-9.32v18.9q0 1.63.8 2.55t2.19.92q.78 0 1.31-.19t.92-.39.7-.39q.3-.19.61-.19.37 0 .61.19t.51.56l2.52 4.08q-1.84 1.53-4.22 2.31t-4.93.78m20.3-21.99h15.84q0-1.64-.46-3.08-.46-1.45-1.37-2.53-.92-1.09-2.33-1.72t-3.28-.63q-3.64 0-5.73 2.07-2.09 2.08-2.67 5.89m21.42 5.06h-21.59q.2 2.69.95 4.64.75 1.96 1.97 3.23 1.23 1.28 2.91 1.91t3.72.63 3.52-.48 2.59-1.05q1.1-.58 1.93-1.06.84-.47 1.62-.47 1.05 0 1.56.78l2.42 3.06q-1.4 1.63-3.13 2.73-1.74 1.11-3.62 1.77-1.89.67-3.84.94-1.96.27-3.8.27-3.63 0-6.76-1.21-3.13-1.2-5.44-3.57-2.31-2.36-3.64-5.85-1.33-3.48-1.33-8.07 0-3.57 1.16-6.72 1.16-3.14 3.32-5.47 2.15-2.33 5.27-3.69 3.11-1.36 7.02-1.36 3.29 0 6.08 1.06 2.79 1.05 4.8 3.07 2 2.03 3.14 4.97t1.14 6.71q0 1.91-.41 2.57t-1.56.66m15.67-16.39.51 3.95q1.63-3.13 3.88-4.92 2.24-1.78 5.3-1.78 2.42 0 3.88 1.05l-.55 6.29q-.17.62-.49.87-.32.26-.87.26-.51 0-1.51-.17t-1.95-.17q-1.4 0-2.49.4-1.08.41-1.95 1.18-.87.76-1.53 1.85t-1.24 2.48v21.49h-8.4v-34.88h4.93q1.29 0 1.8.45.51.46.68 1.65"/></svg>